<svg id="Layer_1" data-name="Layer 1" xmlns="http://www.w3.org/2000/svg" viewBox="0 0 1920 1080"><defs><style>.cls-1,.cls-6{fill:#00838f;}.cls-2{fill:#064258;}.cls-3{fill:#14a0ad;}.cls-4{fill:#31b7c3;}.cls-5{fill:#42d4e0;}.cls-6{font-size:322.5px;font-family:AgencyFB-Bold, Agency FB;font-weight:700;}</style></defs><title>logo2</title><path class="cls-1" d="M365.5,407.5l-201,280,91,126,283-403Z"/><polygon class="cls-2" points="391.91 619.25 255 814 304 793 391.91 619.25"/><polygon class="cls-3" points="398.05 610.5 479 706 304 793 392 619 398.05 610.5"/><polygon class="cls-2" points="538 680 479 706 398 611 538 680"/><polygon class="cls-4" points="822 814 583 611 398 611 822 814"/><polygon class="cls-5" points="449 284 623 284 912 689 822 814 449 284"/><polyline class="cls-2" points="583 611 678.78 610.5 822 814"/><text class="cls-6" transform="translate(949.32 677.44) scale(0.87 1)">APRICOT</text></svg>